<svg width="287" height="253" viewBox="0 0 287 253" fill="none" xmlns="http://www.w3.org/2000/svg">
<path d="M39.8493 184.632C39.8493 194.611 32.1727 202.7 22.7031 202.7C13.2335 202.7 5.55688 194.611 5.55688 184.632C5.55688 174.654 13.2335 166.565 22.7031 166.565C32.1727 166.565 39.8493 174.654 39.8493 184.632Z" fill="#D93F4D"/>
<path d="M269.18 31.0609C269.18 43.5337 259.584 53.6449 247.747 53.6449C235.91 53.6449 226.314 43.5337 226.314 31.0609C226.314 18.588 235.91 8.47681 247.747 8.47681C259.584 8.47681 269.18 18.588 269.18 31.0609Z" fill="#6AB2E5"/>
<path d="M100.933 200.441C100.933 213.538 90.8571 224.154 78.4282 224.154C65.9994 224.154 55.9238 213.538 55.9238 200.441C55.9238 187.345 65.9994 176.728 78.4282 176.728C90.8571 176.728 100.933 187.345 100.933 200.441Z" fill="#BFDDEB"/>
<path d="M139.512 252.384L1.27026 102.201L259.535 226.291V252.384H139.512Z" fill="#071139" stroke="#1B44A1"/>
<path d="M97.3207 0.572388L1.27026 101.943L260.607 223.025V171.777L97.3207 0.572388Z" fill="#1B44A1"/>
<path d="M206.985 147.421C221.401 163.526 218.78 190.803 201.131 208.345C183.481 225.888 157.486 227.054 143.069 210.949C128.653 194.844 131.274 167.568 148.923 150.025C166.573 132.482 192.568 131.317 206.985 147.421Z" fill="white"/>
<path d="M197.502 149.627C201.116 153.538 203.999 158.122 205.988 163.12C207.977 168.117 209.033 173.429 209.095 178.753C209.156 184.076 208.223 189.307 206.348 194.146C204.473 198.985 201.693 203.338 198.167 206.955C194.641 210.573 190.437 213.386 185.797 215.232C181.156 217.078 176.169 217.921 171.12 217.714C166.072 217.507 161.06 216.254 156.372 214.025C151.684 211.797 147.412 208.637 143.798 204.727L170.65 177.177L197.502 149.627Z" fill="#BAD7E5"/>
<path d="M162.016 152.737L163.88 150.756L187.434 175.369L185.569 177.35L162.016 152.737Z" fill="#0C1C55"/>
<path d="M154.514 180.967L156.379 178.986L169.472 192.668L167.607 194.649L154.514 180.967Z" fill="#0C1C55"/>
<path d="M223.099 248.997C223.099 246.847 223.515 244.153 224.323 242.166C225.131 240.18 226.315 238.375 227.807 236.854C229.3 235.334 231.072 234.128 233.022 233.305C234.973 232.482 237.063 232.059 239.174 232.059C241.285 232.059 243.375 232.482 245.325 233.305C247.276 234.128 249.048 235.334 250.54 236.854C252.033 238.375 253.217 240.18 254.025 242.166C254.833 244.153 255.248 246.847 255.248 248.997H239.174H223.099Z" fill="#6AB2E5"/>
<line y1="-0.75" x2="32.692" y2="-0.75" transform="matrix(0.688376 -0.725354 0.688376 0.725354 231.672 250.126)" stroke="#BEDCEB" stroke-width="1.5"/>
<path d="M234.351 252.385L256.801 228.673" stroke="#BEDCEB" stroke-width="1.5"/>
<path d="M238.102 255.207L252.46 240.834L260.645 232.058" stroke="#BEDCEB" stroke-width="1.5"/>
<path d="M152.907 248.432L14.6658 102.201L272.93 223.025V248.432H152.907Z" fill="#0E2472" stroke="#1B44A1"/>
<path d="M110.18 0.572388L14.1299 101.943L273.466 223.025V171.777L110.18 0.572388Z" fill="#427BC3"/>
<path d="M219.844 147.421C234.261 163.526 231.64 190.803 213.99 208.345C196.34 225.888 170.345 227.054 155.929 210.949C141.512 194.844 144.133 167.568 161.783 150.025C179.433 132.482 205.428 131.317 219.844 147.421Z" fill="white"/>
<path d="M210.362 149.627C213.975 153.538 216.859 158.122 218.848 163.12C220.837 168.117 221.893 173.429 221.954 178.753C222.016 184.076 221.083 189.307 219.208 194.146C217.333 198.985 214.553 203.338 211.027 206.955C207.5 210.573 203.297 213.386 198.656 215.232C194.015 217.078 189.028 217.921 183.98 217.714C178.931 217.507 173.92 216.254 169.232 214.025C164.544 211.797 160.271 208.637 156.658 204.727L183.51 177.177L210.362 149.627Z" fill="#BAD7E5"/>
<path d="M174.875 152.737L176.74 150.756L200.293 175.369L198.429 177.35L174.875 152.737Z" fill="#0C1C55"/>
<path d="M167.374 180.967L169.238 178.986L182.331 192.668L180.467 194.649L167.374 180.967Z" fill="#0C1C55"/>
<path d="M235.959 248.997C235.959 246.847 236.375 244.153 237.183 242.166C237.99 240.18 239.174 238.375 240.667 236.854C242.16 235.334 243.932 234.128 245.882 233.305C247.832 232.482 249.923 232.059 252.033 232.059C254.144 232.059 256.235 232.482 258.185 233.305C260.135 234.128 261.907 235.334 263.4 236.854C264.893 238.375 266.077 240.18 266.884 242.166C267.692 244.153 268.108 246.847 268.108 248.997H252.033H235.959Z" fill="#6AB2E5"/>
<line y1="-0.75" x2="32.692" y2="-0.75" transform="matrix(0.688376 -0.725354 0.688376 0.725354 244.532 250.126)" stroke="#BEDCEB" stroke-width="1.5"/>
<path d="M247.211 252.385L269.66 228.673" stroke="#BEDCEB" stroke-width="1.5"/>
<path d="M250.962 255.207L265.319 240.834L273.504 232.058" stroke="#BEDCEB" stroke-width="1.5"/>
<path d="M165.231 253.514L26.9895 107.847L285.254 228.205V253.514H165.231Z" fill="#2551A9" stroke="#1B44A1"/>
<path d="M123.04 6.21838L26.9895 107.589L286.326 228.671V177.423L123.04 6.21838Z" fill="#6AB2E5"/>
<path d="M232.704 153.067C247.121 169.172 244.5 196.449 226.85 213.991C209.2 231.534 183.205 232.7 168.788 216.595C154.372 200.49 156.993 173.214 174.643 155.671C192.292 138.128 218.287 136.963 232.704 153.067Z" fill="white"/>
<path d="M223.221 155.273C226.835 159.184 229.719 163.768 231.708 168.766C233.697 173.763 234.752 179.075 234.814 184.399C234.876 189.722 233.942 194.953 232.067 199.792C230.192 204.631 227.412 208.984 223.886 212.601C220.36 216.219 216.156 219.032 211.516 220.878C206.875 222.724 201.888 223.567 196.839 223.36C191.791 223.153 186.779 221.9 182.092 219.671C177.404 217.443 173.131 214.283 169.517 210.373L196.369 182.823L223.221 155.273Z" fill="#BAD7E5"/>
<path d="M168.876 253.514H138.44L258.525 131.56L273.466 146.239L168.876 253.514Z" fill="#D93F4D"/>
<path d="M187.735 158.383L189.6 156.402L213.153 181.015L211.288 182.996L187.735 158.383Z" fill="#0C1C55"/>
<path d="M180.234 186.613L182.098 184.632L195.191 198.314L193.327 200.295L180.234 186.613Z" fill="#0C1C55"/>
<path d="M248.819 254.643C248.819 252.493 249.234 249.799 250.042 247.812C250.85 245.826 252.034 244.021 253.527 242.501C255.019 240.98 256.791 239.774 258.742 238.951C260.692 238.128 262.782 237.705 264.893 237.705C267.004 237.705 269.094 238.128 271.045 238.951C272.995 239.774 274.767 240.98 276.26 242.501C277.752 244.021 278.936 245.826 279.744 247.812C280.552 249.799 280.968 252.493 280.968 254.643H264.893H248.819Z" fill="#6AB2E5"/>
<line y1="-0.75" x2="32.692" y2="-0.75" transform="matrix(0.688376 -0.725354 0.688376 0.725354 257.392 255.772)" stroke="#BEDCEB" stroke-width="1.5"/>
<path d="M260.071 258.031L282.52 234.319" stroke="#BEDCEB" stroke-width="1.5"/>
<path d="M263.822 260.853L278.179 246.48L286.364 237.704" stroke="#BEDCEB" stroke-width="1.5"/>
<path d="M196.543 253.514L76.2849 128.12C95.1742 108.261 94.8049 95.0663 76.2849 75.0905L100.871 49.1281C113.335 68.9727 136.043 68.681 147.371 55.2044L285.79 199.312" stroke="white" stroke-width="2"/>
<path d="M160.652 126.053C160.652 135.681 153.15 143.486 143.896 143.486C134.641 143.486 127.139 135.681 127.139 126.053C127.139 116.424 134.641 108.619 143.896 108.619C153.15 108.619 160.652 116.424 160.652 126.053Z" fill="#BFDDEB"/>
<path d="M70.5858 97.7233L76.8695 104.261L55.9238 113.522L70.5858 97.7233Z" fill="white"/>
<path d="M129.233 36.7068L135.517 43.2443L114.572 52.5057L129.233 36.7068Z" fill="white"/>
<path d="M111.953 125.893L144.266 160.374" stroke="white" stroke-width="2"/>
</svg>
