<svg width="307" height="178" viewBox="0 0 307 178" fill="none" xmlns="http://www.w3.org/2000/svg">
<path d="M67.0449 123.16V71.8434C67.0449 71.8434 230.852 71.2315 266.823 72.4534C302.794 73.6752 307 123.16 307 123.16H67.0449Z" fill="#3F79C5"/>
<path d="M141.149 17.7694H125.134L150.649 73.5284H203.309L141.149 17.7694Z" fill="#0E1E69"/>
<ellipse cx="146.849" cy="90.685" rx="4.88596" ry="5.51463" fill="#163899"/>
<ellipse cx="166.936" cy="90.685" rx="4.88596" ry="5.51463" fill="#163899"/>
<ellipse cx="187.022" cy="90.685" rx="4.88596" ry="5.51463" fill="#163899"/>
<ellipse cx="207.109" cy="90.685" rx="4.88596" ry="5.51463" fill="#D93F4D"/>
<ellipse cx="227.196" cy="90.685" rx="4.88596" ry="5.51463" fill="#163899"/>
<ellipse cx="247.283" cy="90.685" rx="4.88596" ry="5.51463" fill="#BFDDEB"/>
<ellipse cx="267.369" cy="90.685" rx="4.88596" ry="5.51463" fill="#163899"/>
<path d="M225.025 100.489H160.421L125.134 178H141.149L225.025 100.489Z" fill="#D93F4D"/>
<path d="M41.5295 125.611C14.321 119.153 0.270256 103.553 2.17035 72.303" stroke="#0E1E69" stroke-width="4"/>
<path d="M84.9602 123.16C58.8031 116.999 45.2954 102.116 47.122 72.303" stroke="#0E1E69" stroke-width="4"/>
<rect x="11.1279" y="72.303" width="127.035" height="3.06368" fill="#6AB2E5"/>
<rect x="27.4146" y="88.8469" width="127.035" height="3.06368" fill="#6AB2E5"/>
<rect x="43.1582" y="106.616" width="127.035" height="3.06368" fill="#6AB2E5"/>
<rect x="58.9019" y="123.16" width="127.035" height="3.06367" fill="#6AB2E5"/>
<ellipse cx="125.676" cy="43.5044" rx="4.88597" ry="5.51463" fill="#BFDDEB"/>
<path d="M112.104 42.5853C112.104 45.1233 110.282 47.1808 108.033 47.1808C105.784 47.1808 103.961 45.1233 103.961 42.5853C103.961 40.0472 105.784 37.9897 108.033 37.9897C110.282 37.9897 112.104 40.0472 112.104 42.5853Z" fill="#BFDDEB"/>
<ellipse cx="91.4748" cy="42.8916" rx="3.25731" ry="3.67642" fill="#BFDDEB"/>
<path d="M77.9027 43.5044C77.9027 45.1964 76.6874 46.568 75.1883 46.568C73.6892 46.568 72.4739 45.1964 72.4739 43.5044C72.4739 41.8123 73.6892 40.4407 75.1883 40.4407C76.6874 40.4407 77.9027 41.8123 77.9027 43.5044Z" fill="#BFDDEB"/>
<ellipse cx="125.676" cy="154.41" rx="4.88597" ry="5.51463" fill="#BFDDEB"/>
<path d="M112.104 153.491C112.104 156.029 110.282 158.086 108.033 158.086C105.784 158.086 103.961 156.029 103.961 153.491C103.961 150.953 105.784 148.895 108.033 148.895C110.282 148.895 112.104 150.953 112.104 153.491Z" fill="#BFDDEB"/>
<ellipse cx="91.4748" cy="153.797" rx="3.25731" ry="3.67642" fill="#BFDDEB"/>
<path d="M77.9027 154.41C77.9027 156.102 76.6874 157.473 75.1883 157.473C73.6892 157.473 72.4739 156.102 72.4739 154.41C72.4739 152.718 73.6892 151.346 75.1883 151.346C76.6874 151.346 77.9027 152.718 77.9027 154.41Z" fill="#BFDDEB"/>
<path d="M2 62.4991V0.0359546C2 0.0359546 26.5768 -1.81816 39.8317 21.1028C49.087 37.1077 48.116 62.4991 48.116 62.4991H2Z" fill="#D93F4D"/>
</svg>

