<svg width="50" height="40" viewBox="0 0 30 20" fill="none" xmlns="http://www.w3.org/2000/svg">
<path d="M0 0L0.0150723 15.5265L15.0074 20L30 15.5265V0H0Z" fill="#D73749"/>
<path d="M22.633 6.3099C22.6096 5.96729 22.4083 5.70512 22.1149 5.52223C21.8448 5.32075 21.4849 5.22035 21.1242 5.22035C20.4936 5.22035 19.7731 5.34171 19.7731 6.02746C19.7731 6.32985 20.0438 6.47099 20.2911 6.57207C21.0339 6.85553 22.7224 6.93565 24.2089 7.37968C25.6937 7.80445 27 8.5906 27 10.3064C27 13.2132 23.8933 14 21.0571 14C18.3103 14 15.2935 13.0108 15.2264 10.3064H19.4809C19.5031 10.67 19.6839 10.9724 20.0212 11.2354C20.2463 11.4164 20.674 11.5378 21.2147 11.5378C21.7999 11.5378 22.7224 11.3358 22.7224 10.7307C22.7224 10.1245 22.3402 9.9435 20.2691 9.62015C16.87 9.09599 15.4966 8.12712 15.4966 6.33002C15.4966 3.68676 18.671 3 21.0117 3C23.5338 3 26.5722 3.62608 26.6844 6.31007L22.633 6.3099Z" fill="white"/>
<path d="M9.40658 6.3099C9.3832 5.96729 9.18185 5.70512 8.88851 5.52223C8.61835 5.32075 8.25846 5.22035 7.89781 5.22035C7.26719 5.22035 6.54665 5.34171 6.54665 6.02746C6.54665 6.32985 6.81737 6.47099 7.06472 6.57207C7.80751 6.85553 9.49594 6.93565 10.9825 7.37968C12.4673 7.80445 13.7736 8.5906 13.7736 10.3064C13.7736 13.2132 10.6669 14 7.8307 14C5.08389 14 2.06711 13.0108 1.99999 10.3064H6.25444C6.27668 10.67 6.45748 10.9724 6.79475 11.2354C7.01985 11.4164 7.44761 11.5378 7.9883 11.5378C8.57348 11.5378 9.49594 11.3358 9.49594 10.7307C9.49594 10.1245 9.1138 9.9435 7.04266 9.62015C3.64355 9.09599 2.27015 8.12712 2.27015 6.33002C2.27015 3.68676 5.44453 3 7.78526 3C10.3073 3 13.3458 3.62608 13.458 6.31007L9.40658 6.3099Z" fill="white"/>
</svg>
