<svg width="92" height="62" viewBox="0 0 92 62" fill="none" xmlns="http://www.w3.org/2000/svg">
<path d="M0.0615234 0L0.107465 48.1321L45.8054 62L91.5039 48.1321V0H0.0615234Z" fill="#D73749"/>
<path d="M72.0408 19.7006C71.9648 18.593 71.3106 17.7454 70.3575 17.1542C69.4797 16.5028 68.3103 16.1782 67.1385 16.1782C65.0895 16.1782 62.7483 16.5706 62.7483 18.7875C62.7483 19.7651 63.6279 20.2214 64.4316 20.5482C66.8451 21.4646 72.3311 21.7236 77.1611 23.1591C81.9856 24.5324 86.23 27.0739 86.23 32.621C86.23 42.0183 76.1357 44.5621 66.9204 44.5621C57.9955 44.5621 48.1934 41.3642 47.9753 32.621H61.7988C61.8711 33.7964 62.4586 34.774 63.5544 35.6243C64.2858 36.2095 65.6757 36.6019 67.4325 36.6019C69.3339 36.6019 72.3311 35.9489 72.3311 33.9926C72.3311 32.033 71.0895 31.4477 64.3599 30.4024C53.3156 28.7078 48.8531 25.5756 48.8531 19.7657C48.8531 11.2202 59.1673 9 66.7728 9C74.9676 9 84.8401 11.0241 85.2046 19.7012L72.0408 19.7006Z" fill="white"/>
<path d="M29.0654 19.7006C28.9895 18.593 28.3353 17.7454 27.3821 17.1542C26.5044 16.5028 25.335 16.1782 24.1632 16.1782C22.1142 16.1782 19.773 16.5706 19.773 18.7875C19.773 19.7651 20.6526 20.2214 21.4563 20.5482C23.8697 21.4646 29.3558 21.7236 34.1858 23.1591C39.0103 24.5324 43.2547 27.0739 43.2547 32.621C43.2547 42.0183 33.1604 44.5621 23.9451 44.5621C15.0202 44.5621 5.21804 41.3642 4.99998 32.621H18.8235C18.8958 33.7964 19.4832 34.774 20.5791 35.6243C21.3105 36.2095 22.7004 36.6019 24.4572 36.6019C26.3586 36.6019 29.3558 35.9489 29.3558 33.9926C29.3558 32.033 28.1141 31.4477 21.3846 30.4024C10.3402 28.7078 5.87777 25.5756 5.87777 19.7657C5.87777 11.2202 16.192 9 23.7975 9C31.9922 9 41.8648 11.0241 42.2293 19.7012L29.0654 19.7006Z" fill="white"/>
</svg>
