<svg width="187" height="300" viewBox="0 0 187 300" fill="none" xmlns="http://www.w3.org/2000/svg">
<rect x="6.25024" y="118" width="175.507" height="20" fill="#D93F4D"/>
<path d="M0.23291 132.5H186.771" stroke="#FFFCFC"/>
<path d="M39.3459 286L16.2793 138H171.728L149.664 286H39.3459Z" fill="#67B1E7"/>
<path d="M40.8503 300L39.3459 292.5H150.667L149.163 300H40.8503Z" fill="#161A51"/>
<path d="M16.2793 159L20.5979 165.5L26.3561 159L30.6747 165.5L35.953 159L40.7515 165.5L45.0701 159L49.3887 165.5L55.1468 159L59.9453 165.5L64.7438 159L69.5422 165.5L74.8205 159L79.619 165.5L84.4175 159L89.2159 165.5L94.4942 159L98.8129 165.5L104.091 159L108.89 165.5L113.688 159L118.007 165.5L123.765 159L128.563 165.5L133.362 159L138.64 165.5L143.439 159L148.237 165.5L152.556 159L157.834 165.5L162.153 159L168.87 165.5L172.229 159" stroke="#FFF9F9"/>
<path d="M31.1546 261L18.1987 168.5H171.75L158.314 261H31.1546Z" fill="white" stroke="black" stroke-opacity="0.01"/>
<path d="M130.347 215C130.347 236.539 114.264 254 94.4264 254C74.5881 254 58.5059 236.539 58.5059 215C58.5059 193.461 74.5881 176 94.4264 176C114.265 176 130.347 193.461 130.347 215Z" fill="white"/>
<path d="M94.1265 189.865C95.391 190.653 96.7323 191.666 97.7534 192.74L97.3522 193.175C95.3374 192.944 93.2153 193.232 91.3052 193.264C91.0922 193.032 90.6631 192.683 91.0628 192.391L94.1265 189.865ZM129.753 216.901C129.78 217.883 129.866 218.727 129.511 219.733C125.83 220.863 123.412 216.653 119.84 217.288L120.244 219.471C123.548 219.588 125.612 223.011 129.026 222.863C128.541 223.91 129.242 226.666 127.094 225.565C124.863 224.986 123.251 222.863 120.807 222.863C120.512 223.448 120.699 224.258 120.647 224.95C123.225 225.387 125.079 227.741 127.657 228.175C127.415 229.132 127.174 230.204 126.448 230.787C124.351 230.236 122.713 228.202 120.481 228.26L120.084 230.264C122.205 230.323 123.576 232.35 125.483 232.959C125.535 233.804 124.836 234.559 124.433 235.313C122.74 234.764 121.449 233.194 119.515 233.309C119.488 232.522 119.921 231.629 119.758 230.787C117.586 231.485 116.129 229.305 114.519 227.997C114.473 223.718 110.302 220.91 110.082 216.901C110.04 216.102 110.152 215.248 110.49 214.331C111.86 210.908 111.43 206.463 109.927 203.271C109.47 202.431 108.661 201.768 107.906 201.274C109.01 203.8 110.355 206.785 109.683 209.889C109.606 212.287 108.296 214.59 108.281 216.901C108.276 217.725 108.439 218.549 108.878 219.381C110.625 222.781 113.769 225.999 112.587 230.263C112.262 231.572 111.294 232.585 111.052 233.918C113.097 235.747 115.03 237.808 117.742 237.924C118.709 237.257 118.172 234.3 120.16 235.664L123.063 237.232C122.852 238.072 122.201 238.824 121.612 239.402C120.51 238.823 119.436 238.129 118.062 238.186C117.657 238.65 117.309 239.171 117.34 239.837C118.306 240.009 119.193 240.449 120 241.06C119.625 241.932 118.895 242.478 118.223 243.146L115.971 242.276C115.595 242.858 114.814 243.468 115.088 244.106C115.596 244.341 116.16 244.659 116.534 245.066C115.54 246.227 114.28 246.973 113.068 247.761C112.024 244.074 108.583 241.489 108.878 237.226L108.718 237.053C107.91 238.035 108.18 239.606 108.232 240.881C109.2 243.551 111.509 245.614 111.859 248.542C111.455 249.296 110.543 249.446 109.844 249.765C109.925 244.485 102.511 240.481 107.265 235.14C108.851 232.525 111.508 230.029 110.567 226.429C109.6 222.952 106.182 220.798 106.212 216.901L106.217 216.597C106.996 212.533 109.361 208.209 107.426 203.885C106.887 202.146 105.682 200.17 104.043 199.443C106.486 202.464 107.455 207.393 106.057 211.458C105.353 213.075 104.383 215.001 104.286 216.902H104.28C104.228 217.894 104.415 218.882 105.008 219.818C106.864 223.069 110.086 226.641 108.232 230.878C106.137 234.272 102.483 237.724 104.524 242.194C106.001 244.864 108.287 247.528 107.67 250.81L105.252 251.68C106.864 245.558 98.9648 241.961 102.272 235.838C104.313 232.559 107.965 229.482 105.898 225.13C104.662 222.433 102.109 220.837 102.189 217.467L102.277 216.902C103.109 212.122 106.473 207.598 104.121 202.491C103.503 200.983 102.268 199.445 100.897 198.574L100.814 198.663C103.556 201.536 104.39 206.263 102.912 210.063C102.222 212.293 100.708 214.513 100.401 216.902C100.254 218.029 100.378 219.196 100.98 220.426C102.726 223.413 105.788 226.581 103.878 230.442C101.865 233.632 98.5061 236.735 99.8479 240.883C101.326 244.511 104.412 247.968 102.746 252.467L100.251 253.076C102.238 248.691 99.2582 244.34 97.5126 240.537C95.3891 235.081 102.075 232.468 102.182 227.48C102.157 224.26 98.9882 222.432 98.3185 219.472C96.947 218.223 95.5255 219.969 93.8859 219.645C92.6755 219.908 90.8164 217.845 90.0938 220.081C89.2334 223.359 85.3133 225.768 87.0362 229.656C88.6755 233.11 92.6207 235.637 91.3028 240.107C90.1228 244.283 86.225 248.26 88.6424 253.076C87.6494 252.729 85.7948 253.394 85.8217 251.68C84.291 245.847 90.8184 242.449 88.8023 236.62C87.864 233.049 83.5892 231.076 84.5303 226.781C85.2261 223.246 88.8986 220.775 88.3835 216.902C88.3417 216.578 88.2678 216.246 88.1623 215.9C86.7915 211.721 83.9949 207.541 85.6618 202.664C86.1194 201.271 87.0335 200.081 87.8368 198.836C85.1768 200.374 83.835 203.625 83.8901 206.933C83.7742 210.53 86.2339 213.611 86.5838 216.902C86.7215 218.23 86.5201 219.591 85.6618 221.033C83.9169 223.591 81.6349 226.288 82.6811 229.655C83.6759 233.052 87.5979 235.11 87.3562 239.058C87.3296 243.728 82.3056 246.636 83.7295 251.859L81.229 250.983C80.2362 246.342 84.8025 243.967 84.8549 239.673C85.5012 234.734 79.6701 232.902 80.02 228.088C79.9949 224.43 82.9755 222.113 84.292 219.037C84.5178 218.288 84.5929 217.581 84.5627 216.902C84.4014 213.501 81.5637 210.841 82.0346 207.016C82.1931 204.202 83.0796 201.734 84.7728 199.617C82.4367 200.631 81.4717 203.536 80.8264 205.974C79.7065 209.883 82.3797 213.4 82.6478 216.903C82.7666 218.449 82.4167 219.987 81.0693 221.559C79.1339 224.023 77.1712 227.132 78.5686 230.443C80.0483 234.096 84.697 236.94 82.6807 241.497C81.5806 244.37 78.9465 246.545 79.0547 249.94C78.3568 249.62 77.6328 249.302 77.0396 248.723C77.0396 244.4 82.7328 241.7 80.0203 237.144C79.78 238.043 79.7283 239.264 79.5401 240.28C78.5988 242.922 76.5846 245.037 75.8309 247.768C74.5705 247.243 73.2526 246.139 72.2042 244.978L73.6564 244.018C73.4951 243.437 73.0659 242.944 72.6906 242.451C71.7476 242.307 71.1283 242.976 70.3509 243.238C69.6793 242.598 69.0311 242.017 68.4957 241.234C68.9778 239.751 72.7442 240.977 70.8361 238.539C69.5479 237.669 68.2549 238.912 67.1269 239.492L65.5977 237.405C66.9141 236.536 68.2272 235.314 69.8646 235.664C70.2681 236.449 70.2961 237.604 71.0735 238.013C73.8411 237.955 75.8022 235.694 77.9238 233.923C76.445 231.547 75.2414 228.265 76.5549 225.391C77.6074 222.511 80.3497 220.085 80.474 216.901C80.5021 216.176 80.3975 215.414 80.1041 214.593C78.6541 210.559 78.1423 205.106 80.91 201.535C79.4051 201.972 78.5179 203.998 78.0066 205.536C76.3429 209.476 78.4471 213.125 78.5198 216.901C78.5297 217.58 78.4787 218.26 78.3264 218.946C76.902 222.051 74.5942 224.775 74.2193 228.348C72.58 229.477 71.2341 231.453 68.8983 230.786C68.8162 231.453 69.0043 232.469 69.2185 233.224C67.3662 233.14 66.1031 234.615 64.5435 235.312C63.7127 235.024 63.4966 233.864 63.1749 233.052C65.0004 232.386 66.3173 230.409 68.4134 230.44C68.6563 229.711 68.2772 229.043 68.1702 228.347C65.5629 227.097 61.43 234.527 61.0825 228.085C63.6879 227.911 65.3528 225.299 67.933 225.038L68.01 222.952C65.0818 222.632 63.1981 225.884 60.2711 225.563L59.6255 222.779C63.0114 223.008 65.0287 219.73 68.2532 219.554C68.6817 218.945 68.7333 218.045 68.8159 217.205C65.2963 216.709 62.881 220.923 59.1454 219.643C59.1454 219.643 59.0167 217.889 58.9469 216.901H58.952C58.9266 216.514 58.9025 216.245 58.9025 216.245C62.2335 217.641 65.1603 215.056 68.01 213.722C68.7348 213.488 69.865 213.894 70.1901 213.025C70.1618 212.357 71.2889 211.576 70.3507 211.111C66.1845 210.5 63.4169 215.928 59.1449 213.46L58.8245 212.762C59.7132 199.647 66.5608 186.967 77.9238 180.727C82.5259 177.886 88.2432 176.438 94.0091 176.387C100.968 176.324 107.999 178.296 113.229 182.295C118.308 185.661 123.167 191.207 125.804 196.838C128.326 201.771 129.486 207.306 129.833 213.199C125.426 216.796 122.469 209.81 117.982 211.374C118.223 212.13 118.357 212.912 118.87 213.55C122.848 213.52 125.586 218.018 129.75 216.245L129.753 216.901ZM79.1313 200.749C76.3368 198.775 72.794 200.633 70.1896 201.708C69.9479 199.066 68.9546 196.659 66.8834 194.918C66.6825 194.81 66.4048 194.583 66.1546 194.566C66.0048 194.556 65.8624 194.621 65.7517 194.828C66.6905 201.066 62.9363 205.419 60.2759 210.151C61.1617 210.933 62.5849 210.817 63.6594 210.587C66.4796 209.368 69.1661 207.248 72.5242 207.975C73.5173 206.147 75.1858 204.376 76.554 202.925C77.3898 202.144 78.5382 201.647 79.1313 200.749ZM87.6762 204.666C87.6225 205.042 87.703 205.712 88.2391 205.453C89.0733 204.205 90.5501 205.192 91.4629 205.28V204.929C90.9621 204.079 89.9316 203.653 88.8851 203.695C88.6436 203.704 88.3983 203.742 88.1621 203.801C87.8119 203.885 87.5682 204.232 87.6762 204.666ZM100.813 200.928C100.063 199.128 98.3434 198.4 96.783 197.965C96.0182 197.863 95.2243 197.794 94.437 197.786C94.2895 197.784 94.1422 197.782 93.9953 197.786C91.7931 197.834 89.6888 198.445 88.4033 200.403C88.2188 200.955 87.4076 201.732 88.1609 202.227C89.8536 202.11 91.7851 201.881 92.9134 203.45C92.9134 204.844 93.7468 206.699 92.3505 207.367C91.1934 206.21 89.8231 207.86 88.5642 206.931C87.9722 206.553 87.5977 206.994 87.3552 207.545C87.0053 211.143 88.7492 215.113 91.865 217.115C93.1279 217.607 94.8254 218.075 96.1433 217.377C99.3132 215.782 100.626 212.128 101.217 208.761C101.137 208.121 101.166 206.872 100.333 206.842C99.3937 207.484 98.0231 207.105 97.0272 206.842C96.4384 207.047 96.4113 207.978 95.7412 208.154L95.3328 207.802C94.9831 206.209 94.7674 203.944 96.1389 202.841C97.6715 202.174 99.4714 201.882 101.056 202.406C101.352 201.855 100.896 201.421 100.813 200.928ZM99.1956 203.789C99.0891 203.792 98.9855 203.798 98.8807 203.801C98.3178 204.207 96.6772 203.915 97.2694 205.28C98.291 204.407 99.7149 205.019 100.736 205.453C101.113 205.25 101.031 204.844 101.056 204.494C100.728 203.835 99.9453 203.773 99.1956 203.789ZM110.893 191.519C108.904 191.405 107.239 192.625 105.412 193.177C105.253 191.497 106.434 189.723 106.703 188.037C103.749 188.243 101.409 190.163 98.965 191.698C98.3994 190.222 97.8321 188.738 97.2704 187.256L100.494 183.947L100.577 183.511L96.2222 183.249C95.4721 181.829 95.1765 180.119 94.29 178.814C93.5645 180.293 93.0771 181.86 92.3524 183.338L88.0029 183.601V183.947L91.304 187.167C90.9005 188.822 90.5254 190.62 89.5324 191.871C87.5982 190.619 85.6915 189.257 83.5708 188.388C83.0605 188.21 82.3331 187.921 81.8765 188.299C82.5471 189.896 83.4863 191.613 83.3284 193.355C82.4413 193.179 81.7441 192.565 80.9107 192.307C79.914 192.013 78.7314 191.439 77.7644 191.788C79.3767 194.224 80.6926 196.774 81.1478 199.706C86.4964 196.917 92.734 195.384 99.2087 196.575C102.244 197.097 105.034 198.433 107.748 199.533C107.854 196.458 109.654 193.988 110.893 191.519ZM120.077 208.237C122.816 209.02 125.562 212.242 128.462 210.152C125.937 205.625 122.178 201.445 123.224 195.526C123.333 195.122 123.091 194.713 122.743 194.656C121.105 195.379 119.837 197.122 119.188 198.836C118.922 199.849 118.764 200.927 118.388 201.882C116.426 200.779 114.332 199.71 111.941 199.968C111.079 200.084 109.843 200.145 109.684 201.101C112.397 202.668 114.628 205.282 116.291 208.065C117.449 207.861 118.869 208.035 120.077 208.237ZM91.3854 212.328L91.4627 212.852C92.5125 213.608 92.8354 214.888 94.2888 214.772C95.5777 214.855 96.5446 213.55 97.1868 212.506C95.4427 212.246 93.3203 212.649 91.3854 212.328ZM92.8368 209.979C92.8893 210.211 92.7038 210.559 92.9967 210.677C93.8565 210.475 95.4139 211.171 95.894 210.068C95.5588 209.662 95.0116 209.478 94.4373 209.478C93.8632 209.478 93.2674 209.659 92.8368 209.979Z" fill="#007042"/>
<path opacity="0.99" d="M91.3875 208.972H97.2783V211.586H91.3875V208.972Z" fill="white"/>
<path d="M92.4757 210.369C93.2369 210.564 93.4253 210.856 94.0269 210.937C94.6664 210.925 94.5741 210.785 95.6896 210.369C95.7628 210.341 95.8635 210.166 95.7386 210.032C95.046 209.29 94.5673 209.82 94.1331 209.834C93.5572 209.841 93.0169 209.302 92.4542 210.003C92.3583 210.145 92.3084 210.285 92.4757 210.369Z" fill="#007042"/>
<path d="M120.305 253.263V249.54H119.074V248.781H122.371V249.54H121.143V253.263H120.305Z" fill="#007042"/>
<path d="M122.904 253.262V248.781H124.157L124.91 251.838L125.654 248.781H126.911V253.262H126.132V249.735L125.309 253.262H124.502L123.682 249.735V253.262H122.904Z" fill="#007042"/>
<path d="M112.411 14V23.7068C112.411 27.8099 109.084 31.136 104.981 31.136H68.7225C64.1297 31.136 60.4065 34.8592 60.4065 39.452V39.452C60.4065 44.0448 64.1297 47.768 68.7225 47.768H116.78C121.094 47.768 124.592 51.2656 124.592 55.58V55.58C124.592 59.8944 121.094 63.392 116.78 63.392H100.347C95.8832 63.392 92.2649 67.0103 92.2649 71.4737V77" stroke="white" stroke-opacity="0.7"/>
<path d="M164.031 87.9405L22.3027 108.424L22.3027 87.9405L93.8288 87.9405L129.933 87.9405L147.484 87.9405L164.031 87.9405Z" fill="#D93F4D"/>
<ellipse cx="78.9602" cy="7.5" rx="7.52171" ry="7.5" fill="#3F79C5"/>
<ellipse cx="134.621" cy="39" rx="5.01447" ry="5" fill="#67B1E7"/>
<ellipse cx="76.4529" cy="66" rx="5.01447" ry="5" fill="#161A51"/>
</svg>
