<svg width="175" height="39" viewBox="0 0 175 39" fill="none" xmlns="http://www.w3.org/2000/svg">
<g clip-path="url(#clip0)">
<path d="M0.0393066 0L0.0682268 30.2767L28.8349 39L57.6019 30.2767V0H0.0393066Z" fill="#D73749"/>
<path d="M45.7781 14.219C45.7303 13.5223 45.3185 12.9891 44.7185 12.6172C44.1659 12.2075 43.4298 12.0033 42.6921 12.0033C41.4023 12.0033 39.9285 12.2501 39.9285 13.6446C39.9285 14.2596 40.4822 14.5466 40.9881 14.7522C42.5074 15.3286 45.9609 15.4915 49.0013 16.3945C52.0383 17.2583 54.7102 18.8571 54.7102 22.3463C54.7102 28.2576 48.3558 29.8577 42.5548 29.8577C36.9366 29.8577 30.7662 27.8461 30.629 22.3463H39.3308C39.3763 23.0857 39.7461 23.7007 40.436 24.2355C40.8964 24.6036 41.7713 24.8504 42.8772 24.8504C44.0741 24.8504 45.9609 24.4397 45.9609 23.2091C45.9609 21.9765 45.1793 21.6083 40.943 20.9508C33.9906 19.8848 31.1815 17.9145 31.1815 14.2599C31.1815 8.88458 37.6743 7.48798 42.4619 7.48798C47.6205 7.48798 53.8352 8.76118 54.0647 14.2194L45.7781 14.219Z" fill="white"/>
<path d="M18.7253 14.219C18.6775 13.5223 18.2656 12.9891 17.6657 12.6172C17.1131 12.2075 16.377 12.0033 15.6393 12.0033C14.3495 12.0033 12.8757 12.2501 12.8757 13.6446C12.8757 14.2596 13.4294 14.5466 13.9353 14.7522C15.4546 15.3286 18.9081 15.4915 21.9485 16.3945C24.9855 17.2583 27.6574 18.8571 27.6574 22.3463C27.6574 28.2576 21.303 29.8577 15.502 29.8577C9.88383 29.8577 3.71343 27.8461 3.57616 22.3463H12.278C12.3235 23.0857 12.6933 23.7007 13.3832 24.2355C13.8436 24.6036 14.7185 24.8504 15.8244 24.8504C17.0213 24.8504 18.9081 24.4397 18.9081 23.2091C18.9081 21.9765 18.1264 21.6083 13.8902 20.9508C6.93783 19.8848 4.12872 17.9145 4.12872 14.2599C4.12872 8.88458 10.6215 7.48798 15.4091 7.48798C20.5677 7.48798 26.7824 8.76118 27.0119 14.2194L18.7253 14.219Z" fill="white"/>
<path d="M60.8376 0.0172119H69.9544V10.3602H70.0462C71.429 8.55391 73.8683 7.48798 76.5845 7.48798C84.5965 7.48798 86.7609 13.5622 86.7609 18.57C86.7609 23.9048 83.4914 29.8577 76.7217 29.8577C72.2565 29.8577 70.8756 28.3387 69.7242 26.9833H69.6325V29.3235H60.8376V0.0172119ZM73.6385 13.3992C70.369 13.3992 69.6325 16.1481 69.6325 18.6532C69.6325 21.1986 70.369 23.9475 73.6385 23.9475C76.908 23.9475 77.6445 21.1986 77.6445 18.6532C77.6445 16.1481 76.908 13.3992 73.6385 13.3992ZM112.179 24.5631C112.179 26.1639 112.272 27.9712 113.286 29.3245H103.983C103.754 28.7512 103.617 27.8874 103.661 27.314H103.57C101.634 29.2833 98.8267 29.8577 95.8792 29.8577C91.2744 29.8577 87.4542 27.8877 87.4542 23.4133C87.4542 16.6829 96.2934 16.9287 100.944 16.1488C102.188 15.9436 103.43 15.6156 103.43 14.2596C103.43 12.8235 101.91 12.2903 100.439 12.2903C97.6283 12.2903 97.0769 13.5615 97.0306 14.4648H88.557C88.835 8.47279 95.1882 7.48764 100.853 7.48764C112.272 7.48764 112.179 11.7149 112.179 15.8202V24.5631H112.179ZM103.431 19.7611C102.326 20.2537 101.083 20.5407 99.8413 20.7865C97.8149 21.1979 96.7541 21.6482 96.7541 23.0854C96.7541 24.0705 97.9522 25.0553 99.6095 25.0553C101.682 25.0553 103.292 23.9468 103.43 21.73V19.7611H103.431ZM115.446 8.02146H124.241V10.7308H124.332C126.037 8.59585 128.475 7.48729 132.112 7.48729C136.395 7.48729 140.311 9.82642 140.311 14.7113V29.3232H131.192V18.1603C131.192 15.6968 130.871 13.9726 128.202 13.9726C126.633 13.9726 124.562 14.6714 124.562 18.0775V29.3235H115.446V8.02146ZM143.536 0.0175557H152.651V14.1792L158.455 8.02112H168.768L160.25 16.0663L170.105 29.3238H159.143L154.264 21.6083L152.651 23.1668V29.3238H143.536V0.0175557ZM174.154 26.4231C174.501 26.7331 174.672 27.1071 174.672 27.5443C174.672 27.9846 174.501 28.3617 174.154 28.6735C173.811 28.9835 173.39 29.1393 172.897 29.1393C172.405 29.1393 171.985 28.9832 171.642 28.6735C171.298 28.3617 171.128 27.9846 171.128 27.5443C171.128 27.1071 171.298 26.7331 171.643 26.4231C171.991 26.113 172.409 25.9573 172.897 25.9573C173.389 25.9573 173.809 26.1133 174.154 26.4231ZM174.36 26.2453C173.956 25.8889 173.47 25.7095 172.897 25.7095C172.329 25.7095 171.847 25.8892 171.444 26.2453C171.041 26.6056 170.84 27.038 170.84 27.5443C170.84 28.0555 171.04 28.491 171.438 28.8502C171.839 29.2114 172.327 29.3912 172.898 29.3912C173.47 29.3912 173.956 29.2114 174.36 28.8502C174.763 28.4899 174.966 28.0548 174.966 27.5443C174.965 27.037 174.763 26.6049 174.36 26.2453V26.2453ZM173.204 27.4594C173.12 27.4879 172.993 27.5048 172.824 27.5048H172.466V26.7737H172.806C173.026 26.7737 173.188 26.7974 173.288 26.8476C173.388 26.8978 173.438 26.9967 173.438 27.1428C173.438 27.2985 173.359 27.4041 173.204 27.4594V27.4594ZM172.066 28.5501H172.465V27.7526H172.781C172.99 27.7526 173.14 27.7743 173.224 27.8179C173.366 27.8939 173.437 28.0479 173.437 28.2809V28.4429L173.446 28.5061C173.448 28.5161 173.45 28.5229 173.451 28.5298L173.456 28.5504H173.831L173.817 28.5257C173.804 28.4913 173.797 28.4553 173.797 28.4191C173.793 28.3692 173.791 28.3193 173.791 28.2693V28.1211C173.791 28.0194 173.749 27.9149 173.666 27.8073C173.584 27.7018 173.455 27.6354 173.276 27.611C173.418 27.5904 173.528 27.5577 173.607 27.5134C173.755 27.4285 173.827 27.2944 173.827 27.1147C173.827 26.8599 173.712 26.6891 173.477 26.6035C173.346 26.555 173.14 26.5306 172.858 26.5306H172.065V28.5501H172.066Z" fill="white"/>
<path d="M62.615 37.07C63.515 37.07 64.105 36.57 64.105 35.88C64.105 35.35 63.83 35.025 63.295 34.885L62.39 34.645C62.305 34.62 62.26 34.57 62.26 34.475C62.26 34.33 62.38 34.26 62.585 34.26C62.825 34.26 62.915 34.37 62.915 34.515V34.595H63.925V34.505C63.925 33.845 63.39 33.43 62.59 33.43C61.74 33.43 61.195 33.83 61.195 34.545C61.195 35.175 61.535 35.435 62.085 35.57L62.89 35.77C62.985 35.795 63.04 35.865 63.04 35.965C63.04 36.15 62.86 36.24 62.62 36.24C62.385 36.24 62.205 36.13 62.205 35.925V35.85H61.165V35.955C61.165 36.65 61.75 37.07 62.615 37.07ZM68.348 34.35H67.308L67.113 35.665L66.743 34.35H65.843L65.473 35.665L65.278 34.35H64.238L64.893 37H65.863L66.293 35.705L66.723 37H67.693L68.348 34.35ZM68.6029 37H69.6729V34.35H68.6029V37ZM68.5729 33.69C68.5729 33.995 68.7929 34.215 69.1379 34.215C69.4829 34.215 69.7029 33.995 69.7029 33.69C69.7029 33.385 69.4829 33.165 69.1379 33.165C68.7929 33.165 68.5729 33.385 68.5729 33.69ZM71.6965 37V36.17H71.4365C71.3765 36.17 71.3315 36.145 71.3315 36.065V35.14H71.7465V34.35H71.3315V33.64H70.2615V34.35H69.9715V35.14H70.2615V36.175C70.2615 36.665 70.4965 37 71.0415 37H71.6965ZM73.334 37.06C74.114 37.06 74.624 36.57 74.629 35.905H73.659C73.654 36.06 73.564 36.215 73.359 36.215C73.154 36.215 73.064 36.085 73.064 35.895V35.455C73.064 35.265 73.154 35.135 73.359 35.135C73.564 35.135 73.654 35.29 73.659 35.445H74.629C74.624 34.78 74.114 34.29 73.334 34.29C72.449 34.29 71.994 34.81 71.994 35.53V35.82C71.994 36.54 72.449 37.06 73.334 37.06ZM74.9652 37H76.0352V35.425C76.0352 35.27 76.1302 35.195 76.2702 35.195C76.4202 35.195 76.5102 35.275 76.5102 35.425V37H77.5802V35.26C77.5802 34.685 77.2702 34.29 76.6752 34.29C76.3752 34.29 76.1552 34.4 76.0352 34.585V33.35H74.9652V37ZM80.4959 37.07C81.3959 37.07 81.9859 36.57 81.9859 35.88C81.9859 35.35 81.7109 35.025 81.1759 34.885L80.2709 34.645C80.1859 34.62 80.1409 34.57 80.1409 34.475C80.1409 34.33 80.2609 34.26 80.4659 34.26C80.7059 34.26 80.7959 34.37 80.7959 34.515V34.595H81.8059V34.505C81.8059 33.845 81.2709 33.43 80.4709 33.43C79.6209 33.43 79.0759 33.83 79.0759 34.545C79.0759 35.175 79.4159 35.435 79.9659 35.57L80.7709 35.77C80.8659 35.795 80.9209 35.865 80.9209 35.965C80.9209 36.15 80.7409 36.24 80.5009 36.24C80.2659 36.24 80.0859 36.13 80.0859 35.925V35.85H79.0459V35.955C79.0459 36.65 79.6309 37.07 80.4959 37.07ZM83.1935 37.06C83.4935 37.06 83.7985 36.96 83.9335 36.81V37H84.9585V35.395C84.9585 34.725 84.4635 34.29 83.6685 34.29C82.9935 34.29 82.5035 34.62 82.4035 35.24H83.3735C83.4135 35.155 83.4985 35.105 83.6385 35.105C83.7985 35.105 83.8885 35.21 83.8885 35.335V35.58C83.7285 35.485 83.5035 35.435 83.2835 35.435C82.6835 35.435 82.2435 35.655 82.2435 36.23C82.2435 36.73 82.6185 37.06 83.1935 37.06ZM83.5885 36.385C83.4285 36.385 83.3135 36.31 83.3135 36.175C83.3135 36.03 83.4335 35.965 83.6085 35.965C83.7835 35.965 83.8885 36.055 83.8885 36.175C83.8885 36.3 83.7585 36.385 83.5885 36.385ZM87.8319 34.35H86.7769L86.4469 35.84L86.1169 34.35H85.0619L85.8919 37H87.0019L87.8319 34.35ZM89.193 37.06C89.873 37.06 90.333 36.67 90.408 36.18H89.468C89.433 36.26 89.348 36.335 89.193 36.335C89.003 36.335 88.908 36.21 88.908 36.055V35.945H90.418V35.485C90.418 34.82 89.998 34.29 89.168 34.29C88.313 34.29 87.868 34.78 87.868 35.52V35.85C87.868 36.66 88.398 37.06 89.193 37.06ZM88.908 35.305C88.908 35.125 88.983 35.005 89.168 35.005C89.358 35.005 89.423 35.13 89.423 35.29V35.4H88.908V35.305ZM90.7709 37H91.8409V35.835C91.8409 35.5 92.0209 35.385 92.3209 35.385H92.4359V34.325H92.4059C92.0509 34.325 91.8559 34.395 91.7859 34.745V34.35H90.7709V37ZM93.8873 37H95.7273C96.5273 37 96.9573 36.595 96.9573 36.005C96.9573 35.57 96.7023 35.285 96.2823 35.19C96.5723 35.05 96.7423 34.76 96.7423 34.405C96.7423 33.88 96.3573 33.5 95.7023 33.5H93.8873V37ZM94.9573 36.175V35.63H95.6323C95.7923 35.63 95.8923 35.755 95.8923 35.9C95.8923 36.055 95.7973 36.175 95.6373 36.175H94.9573ZM94.9573 34.845V34.325H95.4273C95.5773 34.325 95.6723 34.435 95.6723 34.575C95.6723 34.73 95.5873 34.845 95.4273 34.845H94.9573ZM98.1349 37.06C98.4349 37.06 98.7399 36.96 98.8749 36.81V37H99.8999V35.395C99.8999 34.725 99.4049 34.29 98.6099 34.29C97.9349 34.29 97.4449 34.62 97.3449 35.24H98.3149C98.3549 35.155 98.4399 35.105 98.5799 35.105C98.7399 35.105 98.8299 35.21 98.8299 35.335V35.58C98.6699 35.485 98.4449 35.435 98.2249 35.435C97.6249 35.435 97.1849 35.655 97.1849 36.23C97.1849 36.73 97.5599 37.06 98.1349 37.06ZM98.5299 36.385C98.3699 36.385 98.2549 36.31 98.2549 36.175C98.2549 36.03 98.3749 35.965 98.5499 35.965C98.7249 35.965 98.8299 36.055 98.8299 36.175C98.8299 36.3 98.6999 36.385 98.5299 36.385ZM100.327 37H101.397V35.425C101.397 35.27 101.492 35.195 101.632 35.195C101.782 35.195 101.872 35.275 101.872 35.425V37H102.942V35.26C102.942 34.685 102.632 34.29 102.037 34.29C101.732 34.29 101.472 34.41 101.352 34.6V34.35H100.327V37ZM103.369 37H104.439V35.755L104.904 37H106.069L105.524 35.66L106.054 34.35H104.889L104.439 35.57V33.35H103.369V37Z" fill="white"/>
</g>
<defs>
<clipPath id="clip0">
<rect width="175" height="39" fill="white"/>
</clipPath>
</defs>
</svg>
