<svg width="278" height="62" viewBox="0 0 278 62" fill="none" xmlns="http://www.w3.org/2000/svg">
<g clip-path="url(#clip0)">
<path d="M0.0615234 0L0.107465 48.1321L45.8054 62L91.5039 48.1321V0H0.0615234Z" fill="#D73749"/>
<path d="M72.0408 19.7006C71.9648 18.593 71.3106 17.7454 70.3575 17.1542C69.4797 16.5028 68.3103 16.1782 67.1385 16.1782C65.0895 16.1782 62.7483 16.5706 62.7483 18.7875C62.7483 19.7651 63.6279 20.2214 64.4316 20.5482C66.8451 21.4646 72.3311 21.7236 77.1611 23.1591C81.9856 24.5324 86.23 27.0739 86.23 32.621C86.23 42.0183 76.1357 44.5621 66.9204 44.5621C57.9955 44.5621 48.1934 41.3642 47.9753 32.621H61.7988C61.8711 33.7964 62.4586 34.774 63.5544 35.6243C64.2858 36.2095 65.6757 36.6019 67.4325 36.6019C69.3339 36.6019 72.3311 35.9489 72.3311 33.9926C72.3311 32.033 71.0895 31.4477 64.3599 30.4024C53.3156 28.7078 48.8531 25.5756 48.8531 19.7657C48.8531 11.2202 59.1673 9 66.7728 9C74.9676 9 84.8401 11.0241 85.2046 19.7012L72.0408 19.7006Z" fill="white"/>
<path d="M29.0654 19.7006C28.9895 18.593 28.3353 17.7454 27.3821 17.1542C26.5044 16.5028 25.335 16.1782 24.1632 16.1782C22.1142 16.1782 19.773 16.5706 19.773 18.7875C19.773 19.7651 20.6526 20.2214 21.4563 20.5482C23.8697 21.4646 29.3558 21.7236 34.1858 23.1591C39.0103 24.5324 43.2547 27.0739 43.2547 32.621C43.2547 42.0183 33.1604 44.5621 23.9451 44.5621C15.0202 44.5621 5.21804 41.3642 4.99998 32.621H18.8235C18.8958 33.7964 19.4832 34.774 20.5791 35.6243C21.3105 36.2095 22.7004 36.6019 24.4572 36.6019C26.3586 36.6019 29.3558 35.9489 29.3558 33.9926C29.3558 32.033 28.1141 31.4477 21.3846 30.4024C10.3402 28.7078 5.87777 25.5756 5.87777 19.7657C5.87777 11.2202 16.192 9 23.7975 9C31.9922 9 41.8648 11.0241 42.2293 19.7012L29.0654 19.7006Z" fill="white"/>
<path d="M96.6449 0.0273438H111.128V16.4701H111.273C113.47 13.5985 117.345 11.904 121.66 11.904C134.388 11.904 137.826 21.5603 137.826 29.5216C137.826 38.0025 132.632 47.466 121.878 47.466C114.785 47.466 112.591 45.0512 110.762 42.8966H110.616V46.6168H96.6449V0.0273438ZM116.98 21.3013C111.786 21.3013 110.616 25.6713 110.616 29.6538C110.616 33.7003 111.786 38.0703 116.98 38.0703C122.174 38.0703 123.344 33.7003 123.344 29.6538C123.344 25.6713 122.174 21.3013 116.98 21.3013ZM178.204 39.049C178.204 41.5938 178.352 44.4671 179.963 46.6185H165.184C164.821 45.707 164.602 44.3338 164.672 43.4223H164.528C161.452 46.5529 156.993 47.466 152.311 47.466C144.996 47.466 138.927 44.3343 138.927 37.2211C138.927 26.5216 152.969 26.9123 160.357 25.6724C162.333 25.3462 164.307 24.8248 164.307 22.6691C164.307 20.386 161.891 19.5384 159.554 19.5384C155.089 19.5384 154.214 21.5592 154.14 22.9953H140.679C141.121 13.4695 151.213 11.9034 160.212 11.9034C178.351 11.9034 178.204 18.6237 178.204 25.15V39.049H178.204ZM164.307 31.4151C162.552 32.1981 160.578 32.6544 158.605 33.0451C155.386 33.6992 153.701 34.4151 153.701 36.6998C153.701 38.2659 155.604 39.8315 158.237 39.8315C161.529 39.8315 164.087 38.0692 164.307 34.5451V31.4151H164.307ZM183.394 12.752H197.366V17.0592H197.51C200.218 13.6652 204.092 11.9029 209.869 11.9029C216.673 11.9029 222.894 15.6215 222.894 23.3871V46.6163H208.408V28.8702C208.408 24.9538 207.897 22.2128 203.658 22.2128C201.166 22.2128 197.875 23.3237 197.875 28.7385V46.6168H183.394V12.752ZM228.017 0.0278902H242.498V22.5412L251.717 12.7515H268.101L254.569 25.5412L270.224 46.6174H252.811L245.059 34.3517L242.498 36.8293V46.6174H228.017V0.0278902ZM276.656 42.0059C277.207 42.4988 277.479 43.0933 277.479 43.7884C277.479 44.4884 277.207 45.0879 276.656 45.5835C276.111 46.0764 275.443 46.3239 274.66 46.3239C273.877 46.3239 273.211 46.0758 272.665 45.5835C272.118 45.0879 271.849 44.4884 271.849 43.7884C271.849 43.0933 272.118 42.4988 272.667 42.0059C273.22 41.513 273.884 41.2654 274.66 41.2654C275.441 41.2654 276.107 41.5135 276.656 42.0059ZM276.983 41.7233C276.341 41.1567 275.569 40.8714 274.66 40.8714C273.758 40.8714 272.991 41.1572 272.35 41.7233C271.71 42.296 271.392 42.9835 271.392 43.7884C271.392 44.601 271.709 45.2933 272.342 45.8644C272.978 46.4387 273.754 46.7245 274.66 46.7245C275.569 46.7245 276.342 46.4387 276.984 45.8644C277.624 45.2917 277.946 44.5999 277.946 43.7884C277.945 42.9818 277.623 42.2949 276.983 41.7233V41.7233ZM275.147 43.6534C275.013 43.6988 274.812 43.7255 274.543 43.7255H273.974V42.5632H274.514C274.864 42.5632 275.121 42.601 275.281 42.6807C275.44 42.7605 275.519 42.9179 275.519 43.1501C275.518 43.3977 275.393 43.5654 275.147 43.6534V43.6534ZM273.339 45.3873H273.973V44.1195H274.474C274.807 44.1195 275.046 44.154 275.179 44.2234C275.405 44.3441 275.517 44.5889 275.517 44.9594V45.2168L275.531 45.3174C275.535 45.3332 275.538 45.3441 275.539 45.3551L275.547 45.3879H276.143L276.12 45.3485C276.1 45.2938 276.089 45.2367 276.088 45.1791C276.083 45.0998 276.08 45.0203 276.08 44.9409V44.7053C276.08 44.5436 276.013 44.3775 275.881 44.2064C275.751 44.0387 275.545 43.9332 275.262 43.8944C275.487 43.8616 275.661 43.8097 275.786 43.7392C276.022 43.6042 276.136 43.3911 276.136 43.1053C276.136 42.7004 275.954 42.4288 275.581 42.2927C275.373 42.2157 275.046 42.1769 274.597 42.1769H273.338V45.3873H273.339Z" fill="white"/>
<path d="M99.8098 60.5875C101.43 60.5875 102.492 59.6875 102.492 58.4455C102.492 57.4915 101.997 56.9065 101.034 56.6545L99.4048 56.2225C99.2518 56.1775 99.1708 56.0875 99.1708 55.9165C99.1708 55.6555 99.3868 55.5295 99.7558 55.5295C100.188 55.5295 100.35 55.7275 100.35 55.9885V56.1325H102.168V55.9705C102.168 54.7825 101.205 54.0355 99.7648 54.0355C98.2348 54.0355 97.2538 54.7555 97.2538 56.0425C97.2538 57.1765 97.8658 57.6445 98.8558 57.8875L100.305 58.2475C100.476 58.2925 100.575 58.4185 100.575 58.5985C100.575 58.9315 100.251 59.0935 99.8188 59.0935C99.3958 59.0935 99.0718 58.8955 99.0718 58.5265V58.3915H97.1998V58.5805C97.1998 59.8315 98.2528 60.5875 99.8098 60.5875ZM110.129 55.6915H108.257L107.906 58.0585L107.24 55.6915H105.62L104.954 58.0585L104.603 55.6915H102.731L103.91 60.4615H105.656L106.43 58.1305L107.204 60.4615H108.95L110.129 55.6915ZM110.588 60.4615H112.514V55.6915H110.588V60.4615ZM110.534 54.5035C110.534 55.0525 110.93 55.4485 111.551 55.4485C112.172 55.4485 112.568 55.0525 112.568 54.5035C112.568 53.9545 112.172 53.5585 111.551 53.5585C110.93 53.5585 110.534 53.9545 110.534 54.5035ZM116.157 60.4615V58.9675H115.689C115.581 58.9675 115.5 58.9225 115.5 58.7785V57.1135H116.247V55.6915H115.5V54.4135H113.574V55.6915H113.052V57.1135H113.574V58.9765C113.574 59.8585 113.997 60.4615 114.978 60.4615H116.157ZM119.104 60.5695C120.508 60.5695 121.426 59.6875 121.435 58.4905H119.689C119.68 58.7695 119.518 59.0485 119.149 59.0485C118.78 59.0485 118.618 58.8145 118.618 58.4725V57.6805C118.618 57.3385 118.78 57.1045 119.149 57.1045C119.518 57.1045 119.68 57.3835 119.689 57.6625H121.435C121.426 56.4655 120.508 55.5835 119.104 55.5835C117.511 55.5835 116.692 56.5195 116.692 57.8155V58.3375C116.692 59.6335 117.511 60.5695 119.104 60.5695ZM122.04 60.4615H123.966V57.6265C123.966 57.3475 124.137 57.2125 124.389 57.2125C124.659 57.2125 124.821 57.3565 124.821 57.6265V60.4615H126.747V57.3295C126.747 56.2945 126.189 55.5835 125.118 55.5835C124.578 55.5835 124.182 55.7815 123.966 56.1145V53.8915H122.04V60.4615ZM131.995 60.5875C133.615 60.5875 134.677 59.6875 134.677 58.4455C134.677 57.4915 134.182 56.9065 133.219 56.6545L131.59 56.2225C131.437 56.1775 131.356 56.0875 131.356 55.9165C131.356 55.6555 131.572 55.5295 131.941 55.5295C132.373 55.5295 132.535 55.7275 132.535 55.9885V56.1325H134.353V55.9705C134.353 54.7825 133.39 54.0355 131.95 54.0355C130.42 54.0355 129.439 54.7555 129.439 56.0425C129.439 57.1765 130.051 57.6445 131.041 57.8875L132.49 58.2475C132.661 58.2925 132.76 58.4185 132.76 58.5985C132.76 58.9315 132.436 59.0935 132.004 59.0935C131.581 59.0935 131.257 58.8955 131.257 58.5265V58.3915H129.385V58.5805C129.385 59.8315 130.438 60.5875 131.995 60.5875ZM136.851 60.5695C137.391 60.5695 137.94 60.3895 138.183 60.1195V60.4615H140.028V57.5725C140.028 56.3665 139.137 55.5835 137.706 55.5835C136.491 55.5835 135.609 56.1775 135.429 57.2935H137.175C137.247 57.1405 137.4 57.0505 137.652 57.0505C137.94 57.0505 138.102 57.2395 138.102 57.4645V57.9055C137.814 57.7345 137.409 57.6445 137.013 57.6445C135.933 57.6445 135.141 58.0405 135.141 59.0755C135.141 59.9755 135.816 60.5695 136.851 60.5695ZM137.562 59.3545C137.274 59.3545 137.067 59.2195 137.067 58.9765C137.067 58.7155 137.283 58.5985 137.598 58.5985C137.913 58.5985 138.102 58.7605 138.102 58.9765C138.102 59.2015 137.868 59.3545 137.562 59.3545ZM145.2 55.6915H143.301L142.707 58.3735L142.113 55.6915H140.214L141.708 60.4615H143.706L145.2 55.6915ZM147.65 60.5695C148.874 60.5695 149.702 59.8675 149.837 58.9855H148.145C148.082 59.1295 147.929 59.2645 147.65 59.2645C147.308 59.2645 147.137 59.0395 147.137 58.7605V58.5625H149.855V57.7345C149.855 56.5375 149.099 55.5835 147.605 55.5835C146.066 55.5835 145.265 56.4655 145.265 57.7975V58.3915C145.265 59.8495 146.219 60.5695 147.65 60.5695ZM147.137 57.4105C147.137 57.0865 147.272 56.8705 147.605 56.8705C147.947 56.8705 148.064 57.0955 148.064 57.3835V57.5815H147.137V57.4105ZM150.49 60.4615H152.416V58.3645C152.416 57.7615 152.74 57.5545 153.28 57.5545H153.487V55.6465H153.433C152.794 55.6465 152.443 55.7725 152.317 56.4025V55.6915H150.49V60.4615ZM156.1 60.4615H159.412C160.852 60.4615 161.626 59.7325 161.626 58.6705C161.626 57.8875 161.167 57.3745 160.411 57.2035C160.933 56.9515 161.239 56.4295 161.239 55.7905C161.239 54.8455 160.546 54.1615 159.367 54.1615H156.1V60.4615ZM158.026 58.9765V57.9955H159.241C159.529 57.9955 159.709 58.2205 159.709 58.4815C159.709 58.7605 159.538 58.9765 159.25 58.9765H158.026ZM158.026 56.5825V55.6465H158.872C159.142 55.6465 159.313 55.8445 159.313 56.0965C159.313 56.3755 159.16 56.5825 158.872 56.5825H158.026ZM163.746 60.5695C164.286 60.5695 164.835 60.3895 165.078 60.1195V60.4615H166.923V57.5725C166.923 56.3665 166.032 55.5835 164.601 55.5835C163.386 55.5835 162.504 56.1775 162.324 57.2935H164.07C164.142 57.1405 164.295 57.0505 164.547 57.0505C164.835 57.0505 164.997 57.2395 164.997 57.4645V57.9055C164.709 57.7345 164.304 57.6445 163.908 57.6445C162.828 57.6445 162.036 58.0405 162.036 59.0755C162.036 59.9755 162.711 60.5695 163.746 60.5695ZM164.457 59.3545C164.169 59.3545 163.962 59.2195 163.962 58.9765C163.962 58.7155 164.178 58.5985 164.493 58.5985C164.808 58.5985 164.997 58.7605 164.997 58.9765C164.997 59.2015 164.763 59.3545 164.457 59.3545ZM167.691 60.4615H169.617V57.6265C169.617 57.3475 169.788 57.2125 170.04 57.2125C170.31 57.2125 170.472 57.3565 170.472 57.6265V60.4615H172.398V57.3295C172.398 56.2945 171.84 55.5835 170.769 55.5835C170.22 55.5835 169.752 55.7995 169.536 56.1415V55.6915H167.691V60.4615ZM173.166 60.4615H175.092V58.2205L175.929 60.4615H178.026L177.045 58.0495L177.999 55.6915H175.902L175.092 57.8875V53.8915H173.166V60.4615Z" fill="white"/>
</g>
<defs>
<clipPath id="clip0">
<rect width="278" height="62" fill="white"/>
</clipPath>
</defs>
</svg>
