<svg width="324" height="257" viewBox="0 0 324 257" fill="none" xmlns="http://www.w3.org/2000/svg">
<rect x="73.4226" y="44" width="143.414" height="11" fill="#0E1E69"/>
<rect x="62.3909" y="86" width="165.478" height="11" fill="#0E1E69"/>
<rect x="0.211426" y="131" width="190.55" height="11" fill="#0E1E69"/>
<path d="M132.594 171H323.143V182H132.594V171Z" fill="#0E1E69"/>
<rect x="46.3445" y="216" width="190.55" height="11" fill="#0E1E69"/>
<path d="M100.465 101.327L100.24 256.886L61.6685 217.579L22.0899 180.78L100.465 101.327Z" fill="#D93F4D"/>
<path d="M118.54 102.44L41.3167 179.44L118.54 256.44" stroke="#FFFDFD"/>
<path d="M141.606 102.44L64.3833 179.44L141.606 256.44" stroke="#FFFDFD"/>
<path d="M162.667 102.44L85.4441 179.44L162.667 256.44" stroke="#FFFDFD"/>
<path d="M228.145 15.3268L228.37 170.886L266.941 131.579L306.52 94.7801L228.145 15.3268Z" fill="#3F79C5"/>
<path d="M185.747 13L262.97 90L185.747 167" stroke="#FFFDFD"/>
<path d="M205.805 13L283.028 90L205.805 167" stroke="#FFFDFD"/>
<path d="M163.182 13.5L240.405 90.5L163.182 167.5" stroke="#FFFDFD"/>
</svg>
